<?xml version="1.0" encoding="UTF-8" standalone="no"?>
<!-- Created with Inkscape (http://www.inkscape.org/) -->

<svg
   version="1.1"
   id="svg1"
   width="1216"
   height="1216"
   viewBox="0 0 1216 1216"
   xmlns="http://www.w3.org/2000/svg"
   xmlns:svg="http://www.w3.org/2000/svg">
  <defs
     id="defs1" />
  <g
     id="g1">
    <path
       style="fill:#000000"
       d="m 515.85855,854.64624 -8.06791,-1.79027 -6.83879,-2.61532 -6.8388,-2.61532 -8.39231,-4.74331 -8.39232,-4.7433 -8.65656,-7.2054 -8.65656,-7.2054 -7.5395,-9.9133 -7.5395,-9.9133 -5.96689,-11.25547 -5.9669,-11.25548 -6.01214,-0.36223 -6.01214,-0.36223 -5.47154,-2.80616 -5.47154,-2.80617 -3.81617,-6.04609 -3.81618,-6.0461 -0.86355,-5.17885 -0.86355,-5.17886 2.11237,-7.20862 2.11236,-7.20862 5.42074,-4.87625 5.42073,-4.87625 3.35103,-1.26585 3.35103,-1.26584 6.37686,0.0137 6.37685,0.0137 4.12041,1.44629 4.12041,1.44629 19.38746,-14.38772 19.38746,-14.38773 0.0553,-8.38105 0.0553,-8.38105 2.59734,-5.06436 2.59733,-5.06436 4.63663,-4.05345 4.63663,-4.05345 4.94801,-1.62124 4.94801,-1.62124 6.05309,0.84289 6.0532,0.8429 5.6479,3.32616 5.6479,3.32617 2.8504,4.63434 2.8505,4.63435 1.2578,4.38058 1.2578,4.38058 -1.4031,6.73997 -1.4031,6.73998 -4.095,4.94623 -4.0949,4.94624 -5.5404,2.87762 -5.5404,2.87762 -7.3285,-0.067 -7.3286,-0.067 -4.31161,-2.24673 -4.3116,-2.24673 -7.10931,5.67475 -7.10931,5.67474 -11.62965,8.34902 -11.62965,8.34901 0.85401,6.54547 0.85402,6.54547 -0.87333,4.60081 -0.87333,4.60081 -3.36295,4.93281 -3.36296,4.9328 1.40898,4.30017 1.40897,4.30017 5.87252,9.57081 5.87253,9.57081 5.69887,6.78798 5.69887,6.78799 8.00549,6.07867 8.00549,6.07868 9.28022,4.49856 9.28023,4.49856 1.5462,0.003 1.5462,0.003 -1.7726,-5.00065 -1.7725,-5.00065 -0.045,-5.33007 -0.045,-5.33007 2.3398,-4.64443 2.3397,-4.64443 3.6698,-1.26396 3.6697,-1.26396 3.6557,2.7852 3.6557,2.7852 -0.3733,2.47685 -0.3734,2.47686 -0.2292,6.09856 -0.2291,6.09856 2.9268,4.75844 2.9268,4.75843 4.8522,2.31528 4.8523,2.31529 6.9328,-0.70052 6.9327,-0.70051 7.03,-3.54344 7.03,-3.54344 6.5328,-6.08448 6.5328,-6.08449 3.981,-8.29568 3.981,-8.29568 0.081,-37.61042 0.081,-37.61043 -5.005,3.80903 -5.005,3.80903 -12.6772,8.63679 -12.6772,8.6368 0.4219,5.99713 0.4219,5.99712 -1.4121,4.70798 -1.412,4.70798 -4.3017,4.38101 -4.3016,4.38101 -5.3016,2.69035 -5.3015,2.69035 -7.7722,-0.57893 -7.7722,-0.57893 -5.5291,-3.92381 -5.52911,-3.9238 -2.64985,-5.15616 -2.64984,-5.15616 -0.59688,-6.35478 -0.59687,-6.35477 1.612,-4.84947 1.612,-4.84946 3.39295,-4.01479 3.3929,-4.01479 5.4884,-2.78515 5.4884,-2.78515 6.9053,0.0148 6.9054,0.0148 5.1657,2.5696 5.1657,2.5696 21.9473,-15.04373 21.9473,-15.04372 0.9332,-4.93095 0.9331,-4.93095 0.1045,-12.93484 0.1045,-12.93483 -9.5936,-7.73915 -9.5937,-7.73916 -11.7537,-8.82119 -11.7537,-8.82119 -5.5694,2.74066 -5.5694,2.74066 -6.8747,-0.11411 -6.8748,-0.11411 -5.7543,-3.197 -5.7543,-3.19701 -3.8981,-5.57775 -3.89821,-5.57776 -0.62412,-6.64491 -0.62412,-6.64492 -55.25937,-19.80291 -55.25936,-19.80291 -2.66487,-2.16735 -2.66487,-2.16736 0.008,-3.62797 0.008,-3.62798 2.37743,-2.61573 2.37742,-2.61574 2.79161,-0.006 2.7916,-0.006 29.95766,10.94095 29.95766,10.94096 26.44978,9.75445 26.44976,9.75445 2.85,-2.72401 2.85,-2.72402 4.2918,-1.8329 4.2917,-1.8329 6.7714,0.0145 6.7714,0.0145 4.2598,2.15705 4.2598,2.15705 4.3757,4.17138 4.3756,4.17139 2.0037,6.94786 2.0036,6.94786 -0.8336,4.40026 -0.8336,4.40026 15.4366,11.6924 15.4365,11.6924 0.9456,6.9e-4 0.9456,6.9e-4 0.6049,-58.39407 0.6049,-58.39408 -6.9939,-4.50915 -6.9939,-4.50915 -3.276,-7.19656 -3.2761,-7.19656 0.6061,-7.12272 0.606,-7.12271 3.6264,-5.45442 3.6264,-5.45443 4.2827,-2.52478 4.2827,-2.52478 1.6687,-1.46046 1.6688,-1.46047 0.01,-4.50893 0.01,-4.50894 -3.5999,-4.44055 -3.5998,-4.44056 -14.0135,-15.26382 -14.0134,-15.26383 -16.7497,-17.49239 -16.7496,-17.49239 -4.5368,1.87438 -4.5368,1.87437 -7.15116,-1.48505 -7.15119,-1.48506 -4.64072,-3.55542 -4.64073,-3.55541 -3.1602,-6.82518 -3.1602,-6.82519 0.0277,-5.32991 0.0277,-5.32992 2.47525,-5.41893 2.47525,-5.41893 5.17806,-4.25813 5.17807,-4.25813 5.01948,-1.34553 5.01949,-1.34553 4.9751,0.91375 4.9752,0.91374 4.7847,2.41658 4.7847,2.41658 4.1216,4.71464 4.1217,4.71464 1.387,5.03625 1.3869,5.03624 -0.057,2.66487 -0.057,2.66487 -1.9045,5.31254 -1.9046,5.31255 16.9533,17.3721 16.9532,17.3721 10.0418,10.89828 10.0417,10.89829 1.0072,-52.18192 1.0071,-52.18191 -1.9809,-7.66549 -1.9808,-7.6655 -3.1568,-5.0042 -3.1568,-5.00421 -6.8731,-6.43831 -6.8732,-6.43832 -5.6141,-2.47748 -5.6141,-2.47747 -5.0038,-0.93223 -5.0037,-0.93224 -5.806,0.85795 -5.806,0.85794 -5.2417,3.38284 -5.2417,3.38283 -3.13,4.54701 -3.13,4.54702 -1.792,7.63486 -1.792,7.63487 -2.3036,1.6768 -2.3035,1.67681 -2.8253,-0.006 -2.82524,-0.006 -2.91041,-2.72313 -2.91041,-2.72313 0.0437,-5.6111 0.0437,-5.61109 3.27499,-7.91849 3.27499,-7.91849 -0.32111,-0.32249 -0.32111,-0.32249 -7.66988,3.09814 -7.66988,3.09814 -8.95188,5.77979 -8.95188,5.7798 -10.03838,10.03508 -10.03838,10.03508 -5.04058,8.58751 -5.04058,8.58752 -4.0525,10.42556 -4.0525,10.42556 4.63898,5.15698 4.63898,5.15697 1.49234,5.58981 1.49234,5.5898 -0.87137,6.23657 -0.87137,6.23655 17.05248,13.27102 17.05248,13.27102 7.13094,5.81437 7.13093,5.81437 5.1064,-2.2895 5.10639,-2.28951 8.08122,0.60196 8.0813,0.60195 5.5838,3.94237 5.5839,3.94237 2.5378,4.36688 2.5379,4.36688 1.0949,4.90375 1.0949,4.90374 -1.3312,6.14335 -1.3313,6.14335 -4.0757,4.92298 -4.0757,4.92297 -5.1536,2.61527 -5.1536,2.61527 -7.4349,-0.0159 -7.4348,-0.0159 -5.10367,-2.61749 -5.10366,-2.6175 -3.37571,-4.02929 -3.3757,-4.02929 -1.56111,-4.76449 -1.56111,-4.76449 0.47218,-6.78458 0.47217,-6.78457 -22.58769,-18.18351 -22.58768,-18.18351 -2.22588,-1.65603 -2.22587,-1.65603 -4.75354,1.97419 -4.75353,1.9742 -6.09207,-0.0131 -6.09208,-0.013 -4.93831,-2.5459 -4.93831,-2.54589 -2.83553,-3.13386 -2.83552,-3.13387 -1.96795,-4.0017 -1.96794,-4.00169 -0.84341,-4.72584 -0.8434,-4.72585 2.0301,-6.78277 2.03009,-6.78277 5.40243,-4.85978 5.40243,-4.85978 3.35103,-1.26585 3.35103,-1.26585 3.00113,0.006 3.00114,0.006 2.42032,-7.65665 2.42033,-7.65665 4.03513,-7.98631 4.03512,-7.98632 5.15659,-7.56702 5.1566,-7.56702 7.43838,-7.99989 7.43839,-7.99988 9.00889,-6.6487 9.00888,-6.64869 11.25206,-5.3497 11.25206,-5.34969 10.54567,-2.65592 10.54562,-2.65592 16.8293,0.0361 16.8292,0.0361 7.6268,2.00399 7.6267,2.00398 6.9657,3.5147 6.9657,3.5147 5.8141,4.74006 5.8142,4.74007 4.6235,6.46481 4.6235,6.46481 3.6633,-5.00275 3.6634,-5.00274 6.1063,-5.57439 6.1064,-5.57438 8.1018,-4.06802 8.1018,-4.06802 8.346,-1.94889 8.3459,-1.94888 15.3237,0.0225 15.3236,0.0225 10.6544,2.58157 10.6544,2.58156 8.9188,4.02778 8.9188,4.02777 10.3787,7.01823 10.3787,7.01823 6.7042,6.87155 6.7042,6.87154 6.0764,8.56486 6.0764,8.56487 4.6591,9.33744 4.659,9.33744 2.3885,7.66696 2.3884,7.66695 2.8262,0.006 2.8263,0.006 6.5913,3.30225 6.5914,3.30225 3.5908,5.56395 3.5908,5.56394 0.824,5.57644 0.824,5.57645 -1.5318,5.64059 -1.5318,5.64059 -4.6343,5.10756 -4.6343,5.10755 -4.5052,2.12605 -4.5053,2.12606 -6.8603,-0.0147 -6.8604,-0.0147 -3.9625,-2.05987 -3.9625,-2.05988 -24.4213,19.26919 -24.4213,19.26918 0.063,8.3805 0.063,8.3805 -3.3272,5.92992 -3.3272,5.92992 -5.6991,3.98303 -5.699,3.98304 -8.4266,0.51843 -8.4265,0.51843 -4.534,-2.30629 -4.5341,-2.30628 -3.1216,-2.84894 -3.1217,-2.84893 -2.5247,-4.94918 -2.5247,-4.94918 0.015,-7.17218 0.015,-7.17219 3.113,-5.866 3.1129,-5.86601 5.5224,-3.87214 5.5224,-3.87215 7.4112,-0.5986 7.4112,-0.59861 5.8339,2.24235 5.834,2.24235 21.8121,-16.85929 21.8122,-16.85929 2.8868,-1.88363 2.8869,-1.88364 -1.2081,-4.24669 -1.2081,-4.2467 0.038,-4.0062 0.038,-4.0062 2.5789,-5.64928 2.579,-5.64927 3.4702,-3.45533 3.4701,-3.45532 -1.5687,-4.87698 -1.5688,-4.87698 -4.6353,-9.33739 -4.6353,-9.33739 -3.9933,-6.00478 -3.9934,-6.00478 -7.4608,-7.79799 -7.4607,-7.798 -7.6624,-5.28398 -7.6625,-5.28398 -9.6011,-4.62655 -9.6012,-4.62655 -1.6394,-0.004 -1.6394,-0.004 3.5425,6.86382 3.5424,6.86381 0.026,7.90629 0.026,7.90628 -2.6692,1.9467 -2.6691,1.9467 -3.9551,-0.4003 -3.955,-0.4003 -1.6226,-3.33471 -1.6227,-3.33471 -1.6416,-6.59231 -1.6416,-6.59231 -6.07,-6.29186 -6.0701,-6.29186 -5.979,-1.60683 -5.9789,-1.60682 -6.0118,0.79326 -6.0117,0.79327 -8.2498,4.01799 -8.2499,4.01798 -6.3016,6.94135 -6.3016,6.94135 -3.4764,7.32126 -3.4763,7.32126 -0.5437,55.63045 -0.5436,55.63045 0.5896,0.001 0.5896,10e-4 11.8536,-12.29086 11.8536,-12.29086 15.8148,-16.15541 15.8149,-16.15542 -1.2752,-2.47765 -1.2753,-2.47764 -0.8407,-4.72583 -0.8407,-4.72583 1.9817,-6.62117 1.9818,-6.62116 5.0477,-4.88345 5.0477,-4.88346 3.7541,-1.40378 3.7541,-1.40378 6.9088,0.0441 6.9087,0.0441 5.4793,2.50243 5.4793,2.50242 3.3161,4.48275 3.316,4.48275 1.5068,4.53267 1.5068,4.53267 -0.015,3.46549 -0.015,3.46549 -1.3869,4.9525 -1.3869,4.9525 -3.5677,4.22162 -3.5677,4.22163 -6.7236,3.1134 -6.7236,3.1134 -4.2439,0.004 -4.2439,0.004 -3.6541,-1.39828 -3.6542,-1.39829 -26.8338,27.6497 -26.8337,27.6497 -7.0251,7.48903 -7.025,7.48904 -0.7424,6.4855 -0.7424,6.4855 5.3631,3.01096 5.3631,3.01095 3.2238,4.33616 3.2238,4.33616 1.6446,5.1669 1.6447,5.16689 -0.8429,6.05313 -0.8429,6.05313 -3.3736,5.72835 -3.3735,5.72834 -5.9683,3.48047 -5.9683,3.48047 -0.1241,57.9343 -0.1242,57.93429 1.9678,-0.42661 1.9677,-0.42661 9.1215,-7.97541 9.1215,-7.97542 5.933,-6.95794 5.933,-6.95794 5.6012,-10.76913 5.6013,-10.76914 2.1033,-9.15661 2.1032,-9.15661 0.041,-19.13647 0.041,-19.13647 1.6703,-2.17691 1.6703,-2.17691 3.3906,-0.80723 3.3907,-0.80723 3.6006,2.84473 3.6006,2.84474 -0.039,18.44089 -0.04,18.4409 -1.8985,9.77373 -1.8984,9.77372 -3.5291,9.3199 -3.5292,9.31989 -5.2048,8.65005 -5.2048,8.65006 -6.3139,7.11021 -6.3139,7.11022 -14.4832,11.77593 -14.4831,11.77594 -2.0245,1.1273 -2.0246,1.12729 0.3329,18.46086 0.3328,18.46085 22.8488,15.73445 22.8488,15.73445 5.054,-2.56302 5.0539,-2.56303 6.9602,0.0149 6.9602,0.0149 3.7481,1.42225 3.748,1.42225 4.4842,4.25849 4.4842,4.25849 2.4616,5.33525 2.4616,5.33525 0.013,3.99751 0.013,3.99751 -1.4086,5.03025 -1.4085,5.03026 -4.2568,4.82735 -4.2569,4.82736 -5.3466,2.41509 -5.3465,2.41509 -4.6638,0.0118 -4.6637,0.0118 -5.0303,-1.40854 -5.0302,-1.40853 -4.5283,-3.99305 -4.5282,-3.99306 -2.9037,-6.03121 -2.9037,-6.03121 0.6006,-6.24073 0.6006,-6.24073 -15.1536,-10.69243 -15.1536,-10.69242 -2.3587,-1.69396 -2.3586,-1.69395 -0.8669,30.69993 -0.8668,30.69994 1.1872,7.3944 1.1872,7.3944 3.2879,7.22253 3.2879,7.22253 6.7493,6.77825 6.7492,6.77825 7.6352,3.59834 7.6352,3.59833 7.9949,0.0171 7.995,0.0171 4.4881,-3.18658 4.4882,-3.18657 1.9137,-4.55248 1.9136,-4.55249 -0.8625,-7.77228 -0.8625,-7.77228 3.4834,-2.27176 3.4834,-2.27175 3.3223,0.84141 3.3223,0.84142 2.1743,3.33396 2.1743,3.33396 0.5633,5.64508 0.5634,5.64508 -1.8936,6.99154 -1.8936,6.99153 0.8635,0.002 0.8636,0.002 11.5662,-5.77385 11.5663,-5.77385 7.3052,-5.61094 7.3051,-5.61094 6.0601,-7.32911 6.0601,-7.32911 4.0325,-7.01312 4.0325,-7.01312 3.4743,-9.1707 3.4743,-9.17071 1.5578,-0.98634 1.5579,-0.98634 3.4097,-0.0131 3.4097,-0.0131 2.5179,1.84945 2.5179,1.84945 -0.1734,4.48492 -0.1734,4.48492 -4.0278,9.60498 -4.0278,9.60497 -5.9189,9.02862 -5.9189,9.02862 -5.757,6.44007 -5.7569,6.44007 -8.7823,6.61879 -8.7823,6.61879 -10.6757,5.19565 -10.6758,5.19564 -7.9995,2.14205 -7.9996,2.14205 -15.3713,0.6401 -15.3714,0.64011 -7.6289,-1.6008 -7.6288,-1.60081 -9.0349,-4.54422 -9.0349,-4.54421 -5.2996,-5.04913 -5.2995,-5.04913 -4.3074,-5.33921 -4.3075,-5.3392 -2.2281,3.32645 -2.2282,3.32646 -6.7518,6.648 -6.7518,6.648 -8.1127,4.27165 -8.1126,4.27166 -7.8376,2.02351 -7.8376,2.0235 -13.3778,-0.16246 -13.3777,-0.16247 z m 167.1174,-138.13247 -5.1431,-1.8459 -4.0072,-3.77832 -4.0072,-3.77832 -2.4562,-5.33523 -2.4563,-5.33524 0.013,-5.9962 0.013,-5.99619 2.438,-5.33618 2.438,-5.33618 4.8645,-4.25268 4.8645,-4.25268 5.6766,-1.51551 5.6766,-1.5155 6.742,1.52396 6.7419,1.52396 4.9513,4.09907 4.9512,4.09907 2.6153,5.15361 2.6152,5.1536 v 1.90353 1.90352 l 4.329,0.77729 4.3289,0.7773 29.0669,4.13233 29.067,4.13233 5.0952,-1.36031 5.0953,-1.3603 4.7468,-5.23159 4.7468,-5.23158 1.4974,-5.51379 1.4974,-5.51378 -0.9012,-4.22104 -0.9012,-4.22103 -2.4336,-4.83445 -2.4336,-4.83445 -4.1447,-3.5028 -4.1448,-3.5028 -13.0973,-8.08732 -13.0974,-8.08733 -1.5333,-1.85562 -1.5333,-1.85562 0.4334,-4.37515 0.4334,-4.37515 3.4856,-1.93712 3.4857,-1.93712 4.2922,1.78869 4.2923,1.78869 14.0638,9.148 14.0639,9.148 1.4576,-0.01 1.4576,-0.01 6.8553,-3.17404 6.8552,-3.17405 5.4468,-4.89964 5.4467,-4.89964 3.2626,-6.8705 3.2625,-6.87049 1.4737,-7.9034 1.4738,-7.90341 v -0.96115 -0.96114 l -5.9243,-3.48894 -5.9243,-3.48893 -2.342,-3.98411 -2.3419,-3.98412 -3.3771,0.009 -3.3771,0.009 -21.9902,1.9187 -21.9903,1.9187 -2.8537,0.0103 -2.8537,0.0104 -0.9223,3.66238 -0.9222,3.66238 -3.2003,4.18734 -3.2002,4.18734 -6.1051,2.93931 -6.1052,2.93931 -8.4383,-0.55547 -8.4383,-0.55547 -5.3139,-3.53301 -5.314,-3.53301 -3.48,-7.02103 -3.4799,-7.02103 0.016,-4.06894 0.016,-4.06894 1.4757,-5.32681 1.4756,-5.32682 5.81,-5.57173 5.81,-5.57173 5.0588,-1.39314 5.0588,-1.39313 4.7145,0.003 4.7145,0.003 5.9199,3.0108 5.9198,3.0108 4.0052,5.33856 4.0052,5.33855 3.9984,-0.44768 3.9985,-0.44769 23.907,-2.1575 23.907,-2.15749 1.182,-4.53007 1.182,-4.53007 6.9851,-6.77862 6.9851,-6.77863 -0.9103,-6.11487 -0.9102,-6.11488 -3.5495,-7.54474 -3.5494,-7.54473 -6.0316,-7.43686 -6.0315,-7.43685 -2.1897,0.9361 -2.1896,0.9361 -6.6664,1.82925 -6.6664,1.82925 -6.1254,-1.46249 -6.1254,-1.46248 -4.8945,-4.05213 -4.8945,-4.05212 -2.7557,-5.43032 -2.7557,-5.43031 0.545,-8.2787 0.5449,-8.27871 3.2338,-4.6978 3.2338,-4.6978 5.1018,-3.29253 5.1017,-3.29253 5.8825,-0.86924 5.8824,-0.86923 5.4165,1.47098 5.4166,1.47099 4.7158,4.15848 4.7158,4.15848 2.5756,5.07544 2.5756,5.07545 -0.016,7.51059 -0.016,7.5106 7.7492,8.49327 7.7491,8.49327 4.2425,8.40297 4.2425,8.40297 1.9318,7.32278 1.9319,7.32277 0.01,4.30354 0.01,4.30354 5.1567,2.64469 5.1566,2.64469 3.6914,4.39694 3.6913,4.39695 1.7877,4.29164 1.7876,4.29163 -0.012,5.41555 -0.012,5.41554 -2.0769,4.94961 -2.0769,4.9496 -4.1139,4.23259 -4.114,4.23259 -3.8259,1.57515 -3.8259,1.57515 -0.015,7.04831 -0.015,7.0483 -2.5419,8.10575 -2.5418,8.10575 -4.2933,6.65908 -4.2933,6.65907 -6.8678,6.15281 -6.8677,6.15281 -6.7867,3.31369 -6.7866,3.31369 1.7138,4.82889 1.7139,4.82889 0.023,10.66 0.023,10.66 -3.1317,6.65575 -3.1316,6.65576 -5.5615,5.51332 -5.5615,5.51333 -5.9688,2.79005 -5.9688,2.79005 -10.3411,-0.0913 -10.3412,-0.0913 -28.639,-4.46513 -28.6391,-4.46514 -4.1812,4.45792 -4.1813,4.45792 -5.8276,2.62922 -5.8276,2.62923 -4.6637,-0.0392 -4.6636,-0.0392 z m -282.30274,-7.89558 -3.64311,-1.18483 -4.69491,-2.91554 -4.69491,-2.91554 -3.97228,-5.80009 -3.97229,-5.8001 -2.08777,-8.22266 -2.08778,-8.22265 1.47144,-8.18611 1.47145,-8.1861 0.77386,-2.82416 0.77385,-2.82416 -6.43304,-3.10433 -6.43305,-3.10434 -8.33331,-8.32548 -8.33331,-8.32549 -3.98039,-8.5536 -3.98039,-8.5536 -1.93155,-9.21492 -1.93155,-9.21492 -0.0143,-4.12412 -0.0143,-4.12411 2.4415,-2.20003 2.4415,-2.20003 4.13048,0.009 4.13049,0.009 1.90788,1.91608 1.90789,1.91608 0.93328,8.41043 0.93328,8.41042 2.49053,7.13484 2.49052,7.13484 4.94257,6.05819 4.94258,6.0582 5.98751,3.81518 5.98752,3.81519 4.44141,0.84307 4.4414,0.84307 7.62183,-6.24734 7.62182,-6.24735 5.54351,-3.23277 5.54351,-3.23278 3.41259,1.30585 3.41259,1.30584 1.52069,2.85614 1.5207,2.85614 -0.77598,3.06393 -0.77599,3.06393 -11.68804,8.67497 -11.68804,8.67496 -3.6207,3.77821 -3.62069,3.7782 -2.06295,5.80733 -2.06295,5.80732 -0.008,3.87273 -0.008,3.87273 1.80822,4.3539 1.80822,4.35389 4.27317,3.6113 4.27316,3.6113 4.36155,0.009 4.36154,0.009 5.87192,-4.14917 5.87191,-4.14917 4.67316,-4.39952 4.67315,-4.39953 3.39068,-0.82421 3.39067,-0.82422 3.60059,2.84473 3.60059,2.84474 -0.008,3.79431 -0.008,3.79431 -8.30423,7.36533 -8.30424,7.36532 -6.47171,3.50439 -6.47172,3.50439 -7.56764,0.47981 -7.56764,0.47981 z m -59.31068,-170.43818 -2.87869,-3.67053 0.8902,-6.6215 0.89019,-6.62151 2.71448,-8.0282 2.71447,-8.0282 4.71071,-7.73587 4.7107,-7.73588 6.4243,-6.39682 6.42429,-6.39682 -0.70626,-5.35262 -0.70626,-5.35263 2.24834,-6.72096 2.24835,-6.72096 5.08619,-4.57531 5.08619,-4.57531 5.02487,-1.64642 5.02486,-1.64642 6.80183,0.82036 6.80183,0.82036 5.33048,3.75929 5.33048,3.75929 3.17609,5.77483 3.1761,5.77484 -0.0522,6.83138 -0.0522,6.83138 -0.48988,1.85299 -0.48988,1.85299 14.63326,11.2798 14.63325,11.2798 14.96504,11.9068 14.96504,11.90681 -0.008,3.75325 -0.008,3.75325 -2.72313,2.91041 -2.72314,2.91041 -3.03946,-0.007 -3.03947,-0.007 -5.22718,-4.43774 -5.22719,-4.43773 -24.31672,-18.85988 -24.31672,-18.85987 -4.58588,1.90457 -4.58588,1.90457 -6.08179,-0.013 -6.08179,-0.013 -4.94955,-2.10043 -4.94955,-2.10042 -6.23499,6.71486 -6.23499,6.71486 -3.4573,7.26779 -3.4573,7.2678 -2.04928,9.73502 -2.04929,9.73502 -2.22555,1.66085 -2.22556,1.66085 -2.97982,-0.006 -2.97983,-0.006 z"
       id="path3" />
  </g>
</svg>
